HIERARCHY
ROOT Hips
{
  OFFSET -43.3411 73.6987 0
  CHANNELS 6 Xposition Yposition Zposition Zrotation Xrotation Yrotation
  JOINT Bip01_Pelvis
  {
    OFFSET 0 0 0
    CHANNELS 6 Xposition Yposition Zposition Zrotation Xrotation Yrotation
    JOINT BN_Tail_01
    {
      OFFSET -18.6385 -9.591 -2.032e-005
      CHANNELS 6 Xposition Yposition Zposition Zrotation Xrotation Yrotation
      JOINT BN_Tail_02
      {
        OFFSET 20.9743 0 0
        CHANNELS 6 Xposition Yposition Zposition Zrotation Xrotation Yrotation
        JOINT BN_Tail_03
        {
          OFFSET 20.3015 0 0
          CHANNELS 6 Xposition Yposition Zposition Zrotation Xrotation Yrotation
          JOINT BN_Tail_04
          {
            OFFSET 21.6394 -9.91821e-005 0
            CHANNELS 6 Xposition Yposition Zposition Zrotation Xrotation Yrotation
            End Site
            {
              OFFSET 0 0 0
            }
          }
        }
      }
    }
    JOINT Bip01_Spine
    {
      OFFSET 22.1878 -0.659386 3.048e-005
      CHANNELS 6 Xposition Yposition Zposition Zrotation Xrotation Yrotation
      JOINT Bip01_R_Thigh
      {
        OFFSET -22.1873 0.677109 -17.1024
        CHANNELS 6 Xposition Yposition Zposition Zrotation Xrotation Yrotation
        JOINT Bip01_R_Calf
        {
          OFFSET 34.2647 0 0
          CHANNELS 6 Xposition Yposition Zposition Zrotation Xrotation Yrotation
          JOINT Bip01_R_HorseLink
          {
            OFFSET 20.4429 0 0
            CHANNELS 6 Xposition Yposition Zposition Zrotation Xrotation Yrotation
            JOINT Bip01_R_Foot
            {
              OFFSET 16.5673 0 0
              CHANNELS 6 Xposition Yposition Zposition Zrotation Xrotation Yrotation
              JOINT Bip01_R_Toe0
              {
                OFFSET 9.18784 6.94841 0
                CHANNELS 6 Xposition Yposition Zposition Zrotation Xrotation Yrotation
                JOINT Bip01_R_Toe0Nub
                {
                  OFFSET 1.01907 0 0
                  CHANNELS 6 Xposition Yposition Zposition Zrotation Xrotation Yrotation
                  End Site
                  {
                    OFFSET 0 0 0
                  }
                }
              }
            }
          }
        }
      }
      JOINT Bip01_L_Thigh
      {
        OFFSET -22.1873 0.67701 17.1024
        CHANNELS 6 Xposition Yposition Zposition Zrotation Xrotation Yrotation
        JOINT Bip01_L_Calf
        {
          OFFSET 34.2647 0 0
          CHANNELS 6 Xposition Yposition Zposition Zrotation Xrotation Yrotation
          JOINT Bip01_L_HorseLink
          {
            OFFSET 20.4429 0 0
            CHANNELS 6 Xposition Yposition Zposition Zrotation Xrotation Yrotation
            JOINT Bip01_L_Foot
            {
              OFFSET 16.5673 0 0
              CHANNELS 6 Xposition Yposition Zposition Zrotation Xrotation Yrotation
              JOINT Bip01_L_Toe0
              {
                OFFSET 9.18784 6.9484 1.14441e-005
                CHANNELS 6 Xposition Yposition Zposition Zrotation Xrotation Yrotation
                JOINT Bip01_L_Toe0Nub
                {
                  OFFSET 1.01907 0 0
                  CHANNELS 6 Xposition Yposition Zposition Zrotation Xrotation Yrotation
                  End Site
                  {
                    OFFSET 0 0 0
                  }
                }
              }
            }
          }
        }
      }
      JOINT Bip01_Spine1
      {
        OFFSET 39.3372 -0.0249863 0
        CHANNELS 6 Xposition Yposition Zposition Zrotation Xrotation Yrotation
        JOINT Bip01_Neck
        {
          OFFSET 34.2837 -15.5934 -4.318e-005
          CHANNELS 6 Xposition Yposition Zposition Zrotation Xrotation Yrotation
          JOINT Bip01_R_Clavicle
          {
            OFFSET -17.9452 -11.3131 -6.19287
            CHANNELS 6 Xposition Yposition Zposition Zrotation Xrotation Yrotation
            JOINT Bip01_R_UpperArm
            {
              OFFSET 17.4439 1.52588e-005 -2.28882e-005
              CHANNELS 6 Xposition Yposition Zposition Zrotation Xrotation Yrotation
              JOINT Bip01_R_Forearm
              {
                OFFSET 30.6251 1.14441e-005 0
                CHANNELS 6 Xposition Yposition Zposition Zrotation Xrotation Yrotation
                JOINT Bip01_R_Hand
                {
                  OFFSET 31.2039 0 0
                  CHANNELS 6 Xposition Yposition Zposition Zrotation Xrotation Yrotation
                  JOINT Bip01_R_Finger0
                  {
                    OFFSET 22.1039 0.255862 -0.37902
                    CHANNELS 6 Xposition Yposition Zposition Zrotation Xrotation Yrotation
                    JOINT Bip01_R_Finger0Nub
                    {
                      OFFSET 12.0552 0 0
                      CHANNELS 6 Xposition Yposition Zposition Zrotation Xrotation Yrotation
                      End Site
                      {
                        OFFSET 0 0 0
                      }
                    }
                  }
                }
              }
            }
          }
          JOINT Bip01_L_Clavicle
          {
            OFFSET -17.9452 -11.3132 6.19281
            CHANNELS 6 Xposition Yposition Zposition Zrotation Xrotation Yrotation
            JOINT Bip01_L_UpperArm
            {
              OFFSET 17.444 0 1.14441e-005
              CHANNELS 6 Xposition Yposition Zposition Zrotation Xrotation Yrotation
              JOINT Bip01_L_Forearm
              {
                OFFSET 30.6251 0 0
                CHANNELS 6 Xposition Yposition Zposition Zrotation Xrotation Yrotation
                JOINT Bip01_L_Hand
                {
                  OFFSET 31.204 0 0
                  CHANNELS 6 Xposition Yposition Zposition Zrotation Xrotation Yrotation
                  JOINT Bip01_L_Finger0
                  {
                    OFFSET 22.1039 0.255856 0.379024
                    CHANNELS 6 Xposition Yposition Zposition Zrotation Xrotation Yrotation
                    JOINT Bip01_L_Finger0Nub
                    {
                      OFFSET 12.0552 0 0
                      CHANNELS 6 Xposition Yposition Zposition Zrotation Xrotation Yrotation
                      End Site
                      {
                        OFFSET 0 0 0
                      }
                    }
                  }
                }
              }
            }
          }
          JOINT Bip01_Neck1
          {
            OFFSET 14.9359 -0.0106278 0
            CHANNELS 6 Xposition Yposition Zposition Zrotation Xrotation Yrotation
            JOINT Bip01_Head
            {
              OFFSET 14.3578 0.505501 0
              CHANNELS 6 Xposition Yposition Zposition Zrotation Xrotation Yrotation
              JOINT BN_Ear_L_01
              {
                OFFSET 3.76994 -2.35629 12.3444
                CHANNELS 6 Xposition Yposition Zposition Zrotation Xrotation Yrotation
                End Site
                {
                  OFFSET 0 0 0
                }
              }
              JOINT BN_Ear_R_01
              {
                OFFSET 3.76995 -2.35622 -12.3442
                CHANNELS 6 Xposition Yposition Zposition Zrotation Xrotation Yrotation
                End Site
                {
                  OFFSET 0 0 0
                }
              }
              JOINT BN_Mouth_01
              {
                OFFSET 11.8395 10.8645 1.27e-005
                CHANNELS 6 Xposition Yposition Zposition Zrotation Xrotation Yrotation
                JOINT BN_Tongue_01
                {
                  OFFSET 9.73752 3.21674 1.016e-005
                  CHANNELS 6 Xposition Yposition Zposition Zrotation Xrotation Yrotation
                  JOINT BN_Tongue_02
                  {
                    OFFSET 9.04304 0.053505 0
                    CHANNELS 6 Xposition Yposition Zposition Zrotation Xrotation Yrotation
                    End Site
                    {
                      OFFSET 0 0 0
                    }
                  }
                }
                JOINT BN_Beard_01
                {
                  OFFSET 6.93466 -0.751793 0
                  CHANNELS 6 Xposition Yposition Zposition Zrotation Xrotation Yrotation
                  JOINT BN_Beard_02
                  {
                    OFFSET 13.0965 1.52588e-005 0
                    CHANNELS 6 Xposition Yposition Zposition Zrotation Xrotation Yrotation
                    End Site
                    {
                      OFFSET 0 0 0
                    }
                  }
                }
              }
              JOINT Bip01_HeadNub
              {
                OFFSET 25.6158 0 0
                CHANNELS 6 Xposition Yposition Zposition Zrotation Xrotation Yrotation
                End Site
                {
                  OFFSET 0 0 0
                }
              }
            }
          }
        }
      }
    }
  }
}
MOTION
Frames:	4
Frame Time:	0.0333333
-43.2706 30.4208 1.37519 174.634 -19.5552 -99.5928 -4.76837e-007 7.10543e-015 -1.42109e-014 -79.2946 -7.83971 -86.7861 -18.6385 -9.591 1.6427e-006 -46.8998 0.760823 178.518 20.9744 1.90735e-006 -1.90735e-006 -4.38416 -13.2548 14.4075 20.3015 1.90735e-005 7.81597e-014 -16.5004 12.8655 15.0581 21.6394 3.8147e-006 -1.42109e-014 -19.17 -5.79453 23.9897 21.8507 -3.66799 1.34402 -8.67834 -0.852827 17.6937 -15.5009 0.601659 -24.301 -83.7535 -18.5315 175.981 34.2647 -1.06581e-014 -3.8147e-006 -86.4165 -6.55631e-006 1.42487e-005 20.4429 -3.55271e-015 2.84217e-014 55.2797 8.56275e-006 9.64709e-006 16.5673 1.14441e-005 7.62939e-006 -17.828 4.74049 9.60998 9.18783 6.9484 -4.49081e-006 85.6319 55.54 72.7168 1.01906 -4.76836e-007 -7.6294e-006 2.07388e-008 -2.39177e-008 -7.88264e-007 -25.8967 0.0935572 8.28184 -95.7995 8.08625 159.614 34.2647 7.10543e-015 -3.55271e-015 -60.5763 -1.32108e-005 -7.11296e-006 20.4429 -2.86102e-006 2.38419e-007 58.2851 -7.01298e-007 -6.59037e-006 16.5673 -7.6294e-006 -3.94351e-013 -40.3266 -5.57746 11.0541 9.18785 6.94841 5.18494e-006 122.956 -2.52724 -1.80354 1.01907 1.52588e-005 -1.90735e-006 -179.96 -8.81081e-005 4.31251e-005 39.3397 -0.0175085 -0.0109198 6.40091 27.1625 -14.0102 34.2857 -15.5931 0.00102205 21.0556 -2.60014 -2.90435 -20.8888 -4.83344 -5.36682 155.969 -38.4257 64.6796 17.4439 3.8147e-006 3.8147e-006 12.3309 20.1058 -48.7734 30.6251 0 4.76837e-007 -75.5685 -8.67969e-006 1.14055e-005 31.204 -1.77636e-015 -3.33786e-006 107.891 74.159 -106.263 22.1039 0.255846 -0.379024 -4.59206 14.6793 -45.7337 12.0552 2.38419e-007 2.8244e-013 179.96 1.67883e-005 -9.28815e-006 -20.2609 -5.39572 6.99002 161.881 39.5022 -103.433 17.444 3.8147e-006 -7.10543e-015 57.5829 -27.2044 71.1964 30.6251 3.8147e-006 -1.14441e-005 -137.955 1.19024e-005 -1.28455e-005 31.204 1.90735e-006 7.62939e-006 -76.1973 -72.0185 -129.24 22.1039 0.255852 0.379046 -2.46614 5.07146 8.58336 12.0552 -3.81471e-006 0 -4.71545e-007 4.93795e-009 1.00323e-005 14.939 -0.00993729 -6.56076e-007 11.8908 -1.18325 -13.2407 14.3578 0.505482 9.04722e-008 10.6509 -1.07083 -6.12383 3.76991 -2.35629 12.3443 -171.976 33.6651 -111.026 3.76997 -2.35623 -12.3442 -9.51581 51.1852 101.176 11.8395 10.8646 -9.99666e-006 -176.606 -3.7507 178.814 9.73754 3.21675 -1.86012e-005 -2.85749 1.04654e-005 2.21525e-006 2.5546 -1.10589 -0.153759 4.77834 -2.94618 -1.72236 6.93466 -0.751788 -1.15545e-005 -47.2548 29.2307 -11.0694 13.0966 -1.52588e-005 -1.90735e-006 0.435946 62.3713 26.1175 25.6159 -3.8147e-006 -4.26326e-014 8.30068e-007 9.36392e-006 3.11879e-006 
-43.2761 32.3655 1.37519 174.29 -22.0332 -99.7912 -4.76837e-007 3.55271e-015 7.10543e-015 -77.1965 -7.48613 -85.9482 -18.6385 -9.591 1.63248e-006 -49.5845 0.851959 178.121 20.9744 1.90735e-006 -1.90735e-006 -7.38449 -15.5123 19.5878 20.3015 1.90735e-005 -7.10543e-015 -22.0901 14.7918 15.2253 21.6394 3.8147e-006 7.10543e-015 -23.761 -8.34537 24.1355 21.8499 -3.52766 1.68866 -8.57424 -3.17869 16.6593 -15.8273 1.27191 -24.3073 -84.3589 -18.4783 175.857 34.2647 3.55271e-015 -3.8147e-006 -86.3206 -6.14512e-006 1.38858e-005 20.4429 -3.55271e-015 2.13163e-014 54.3146 8.54294e-006 1.00807e-005 16.5673 1.14441e-005 7.62939e-006 -15.8273 5.97831 9.08723 9.18783 6.9484 -4.57949e-006 85.5553 55.6423 72.9092 1.01906 -4.76836e-007 -7.6294e-006 2.07388e-008 -2.39177e-008 -7.88264e-007 -25.6185 -0.625789 8.4113 -112.331 15.1502 165.52 34.2647 -3.55271e-015 -1.42109e-014 -104.366 6.80808e-006 -1.76723e-005 20.4429 -2.86102e-006 2.38419e-007 64.0748 -2.55327e-006 -6.3514e-006 16.5673 -7.6294e-006 -3.97904e-013 -10.6316 -8.06702 21.6283 9.18785 6.94841 5.49569e-006 117.311 -0.90472 2.70889 1.01907 1.52588e-005 -1.90735e-006 -179.96 -8.81086e-005 4.31244e-005 39.3394 -0.0175085 -0.0105134 5.31198 26.3203 -13.0667 34.2857 -15.5931 0.00102202 21.4471 -2.49604 -3.0452 -20.9365 -4.70534 -5.29928 155.509 -38.2504 65.1042 17.4439 3.8147e-006 3.8147e-006 10.5133 20.6194 -48.7364 30.6251 0 4.76837e-007 -72.9541 -8.1049e-006 1.18559e-005 31.204 0 -3.33786e-006 109.516 75.9135 -107.829 22.1039 0.255846 -0.379024 -4.64446 14.6209 -45.6887 12.0552 2.38419e-007 2.75335e-013 179.96 1.67883e-005 -9.28811e-006 -20.2787 -5.24529 7.05712 161.588 39.6692 -103.577 17.444 3.8147e-006 -4.26326e-014 57.5073 -26.6224 70.71 30.6251 3.8147e-006 -1.14441e-005 -133.385 1.18817e-005 -1.34658e-005 31.204 1.90735e-006 7.62939e-006 -85.5371 -71.7574 -134.049 22.1039 0.255852 0.379046 -2.75392 5.10884 8.63275 12.0552 -3.81471e-006 -2.13162e-014 -4.71545e-007 4.9377e-009 3.01438e-006 14.939 -0.00993729 -6.56106e-007 11.4558 -1.12725 -13.7837 14.3578 0.505482 9.31105e-008 9.70838 -1.32465 -5.74472 3.76991 -2.35629 12.3443 -171.929 34.0383 -109.716 3.76997 -2.35623 -12.3442 -9.28182 50.4451 102.19 11.8395 10.8646 -9.93838e-006 -176.637 -3.77889 178.812 9.73754 3.21675 -1.85842e-005 -2.85749 1.04518e-005 2.23033e-006 2.5546 -1.10589 -0.153759 4.77834 -2.94618 -1.72236 6.93466 -0.751788 -1.15584e-005 -49.126 28.8364 -9.69696 13.0966 -1.52588e-005 -1.90735e-006 9.67991 61.5548 15.1574 25.6159 -3.8147e-006 7.10543e-015 8.30068e-007 9.36392e-006 3.11879e-006 
-43.2814 34.4042 1.37519 173.918 -24.6135 -100.023 -4.76837e-007 0 0 -74.601 -6.99433 -84.8426 -18.6385 -9.591 1.62766e-006 -51.7673 0.927514 177.809 20.9744 1.90735e-006 -1.90735e-006 -9.53522 -17.1758 23.9853 20.3015 1.90735e-005 -9.59233e-014 -26.7221 16.3868 15.3692 21.6394 3.8147e-006 0 -27.3859 -10.3591 24.3397 21.8406 -3.3331 2.1415 -8.4692 -5.98554 15.2703 -16.2746 2.08674 -24.274 -85.2152 -18.4121 175.617 34.2647 5.32907e-015 -3.8147e-006 -86.5561 3.29916e-006 1.29585e-005 20.4429 0 1.42109e-014 53.4434 8.5026e-006 1.05095e-005 16.5673 1.14441e-005 7.62939e-006 -13.7836 7.2974 8.50662 9.18783 6.9484 -4.67197e-006 85.4777 55.7448 73.1028 1.01906 -4.76836e-007 -7.6294e-006 2.07388e-008 -2.39177e-008 -7.88264e-007 -25.2345 -1.4818 8.54242 -126.892 19.5612 -178.794 34.2647 0 -1.77636e-015 -136.826 1.61012e-005 -1.28998e-005 20.4429 -2.86102e-006 2.38419e-007 59.0449 9.20962e-006 -9.05705e-007 16.5673 -7.6294e-006 -1.68754e-013 25.1304 -3.11185 30.9541 9.18785 6.94841 5.22987e-006 108.7 1.12388 5.89828 1.01907 1.52588e-005 -1.90735e-006 -179.96 -8.81101e-005 4.31239e-005 39.339 -0.0175085 -0.0101056 4.22548 25.4339 -12.0857 34.2857 -15.5931 0.00102198 21.8467 -2.39208 -3.18813 -20.9819 -4.57322 -5.2313 155.039 -38.0702 65.8709 17.4439 3.8147e-006 3.8147e-006 8.85883 21.2657 -49.1296 30.6251 7.10543e-015 4.76837e-007 -69.9104 -7.45434e-006 1.22805e-005 31.204 0 -3.33786e-006 110.855 77.6408 -109.407 22.1039 0.255846 -0.379024 -4.69776 14.5615 -45.6429 12.0552 2.38419e-007 2.49578e-013 179.96 1.67882e-005 -9.2879e-006 -20.2933 -5.091 7.12426 161.288 39.8377 -103.721 17.444 3.8147e-006 1.42109e-014 57.0909 -26.4589 70.4222 30.6251 3.8147e-006 -1.14441e-005 -128.522 1.0711e-005 -1.49567e-005 31.204 1.90735e-006 7.62939e-006 -93.7373 -71.4567 -137.822 22.1039 0.255852 0.379046 -3.04488 5.1464 8.68289 12.0552 -3.81471e-006 -2.13162e-014 -4.71545e-007 4.93769e-009 3.01437e-006 14.939 -0.00993729 -6.5614e-007 11.0168 -1.06906 -14.1365 14.3578 0.505482 9.55034e-008 8.69032 -1.59598 -5.42813 3.76991 -2.35629 12.3443 -171.891 34.4163 -108.387 3.76997 -2.35623 -12.3442 -9.02678 49.6975 103.204 11.8395 10.8646 -9.87995e-006 -176.667 -3.75136 178.81 9.73754 3.21675 -1.85669e-005 -2.85749 1.04349e-005 2.24575e-006 2.5546 -1.10589 -0.153759 4.77834 -2.94618 -1.72236 6.93466 -0.751788 -1.15625e-005 -51.0494 28.2456 -8.29988 13.0966 -1.52588e-005 -1.90735e-006 17.8372 59.3564 4.63309 25.6159 -3.8147e-006 -2.84217e-014 8.30068e-007 9.36392e-006 3.11879e-006 
-43.2864 36.433 1.37519 173.526 -27.2171 -100.278 -4.76837e-007 0 0 -71.7309 -6.39572 -83.5812 -18.6385 -9.591 1.63232e-006 -53.203 0.977831 177.608 20.9744 1.90735e-006 -1.90735e-006 -10.8088 -18.1616 26.9689 20.3015 1.90735e-005 -1.74083e-013 -29.8157 17.4505 15.469 21.6394 3.8147e-006 -1.42109e-014 -29.7992 -11.6988 24.4783 21.8191 -3.09418 2.65785 -8.4053 -9.04778 13.6414 -16.8076 2.9815 -24.1812 -86.334 -18.2906 175.212 34.2647 -5.32907e-015 -3.8147e-006 -87.0708 -5.52815e-006 1.30985e-005 20.4429 -7.10543e-015 1.42109e-014 52.6191 9.36809e-007 5.18896e-006 16.5673 1.14441e-005 7.62939e-006 -11.7602 8.57026 7.89011 9.18783 6.9484 -4.758e-006 85.4577 55.7744 73.1537 1.01906 -4.76836e-007 -7.6294e-006 2.07388e-008 -2.39177e-008 -7.88264e-007 -24.7751 -2.39938 8.64474 -139.182 10.6282 -156.753 34.2647 -1.77636e-015 -2.22045e-016 -153.811 1.76875e-005 -7.80396e-006 20.4429 -2.86102e-006 2.38419e-007 47.0274 1.07962e-005 1.20274e-006 16.5673 -7.6294e-006 -5.50671e-014 53.0504 3.07486 26.5467 9.18785 6.94841 4.92261e-006 100.332 0.950342 5.20234 1.01907 1.52588e-005 -1.90735e-006 -179.96 -8.81115e-005 4.31243e-005 39.3386 -0.0175085 -0.00970318 3.17795 24.5358 -11.1096 34.2857 -15.5931 0.00102194 22.2388 -2.29109 -3.32896 -21.0263 -4.44365 -5.16465 154.585 -37.8915 66.9328 17.4439 3.8147e-006 3.8147e-006 7.47267 22.0125 -49.9027 30.6251 7.10543e-015 4.76837e-007 -66.6258 2.09595e-006 8.83574e-006 31.204 0 -3.33786e-006 111.931 79.2921 -110.997 22.1039 0.255846 -0.379024 -4.79289 14.4504 -45.5609 12.0552 2.38419e-007 2.46025e-013 179.96 1.67881e-005 -9.28749e-006 -20.3076 -4.9397 7.19009 160.994 40.0034 -103.861 17.444 3.8147e-006 -3.55271e-014 56.4539 -26.6664 70.3322 30.6251 3.8147e-006 -1.14441e-005 -123.588 1.99672e-006 -2.11043e-005 31.204 1.90735e-006 7.62939e-006 -100.85 -71.2165 -140.76 22.1039 0.255852 0.379046 -3.36028 5.18929 8.73742 12.0552 -3.81471e-006 7.10541e-015 -4.71545e-007 4.93772e-009 3.01437e-006 14.939 -0.00993729 -6.56174e-007 10.5832 -1.00618 -14.2674 14.3578 0.505482 9.74214e-008 7.65418 -1.88054 -5.23948 3.76991 -2.35629 12.3443 -171.864 34.7871 -107.078 3.76997 -2.35623 -12.3442 -8.54773 48.6669 104.26 11.8395 10.8646 -9.82588e-006 -176.697 -3.7244 178.809 9.73754 3.21675 -1.85506e-005 -2.85749 1.04151e-005 2.2602e-006 2.5546 -1.10589 -0.153759 4.77837 -2.94618 -1.72235 6.93466 -0.751788 -1.15663e-005 -52.9086 27.627 -6.95993 13.0966 -1.52588e-005 -1.90735e-006 24.4725 56.5639 -4.35357 25.6159 -3.8147e-006 7.10543e-015 8.30068e-007 9.36392e-006 3.11879e-006 
